<svg xmlns="http://www.w3.org/2000/svg" width="44" height="45" fill="none"><path fill="#F0F0F0" fill-rule="evenodd" d="m15.554 10.838-.033-.003c-1.536-.071-3.704 1.776-4.505 3.112-.88 1.2-.896 2.795-.129 4.64l.121.278c2.023 4.98 9.613 12.561 14.574 14.636 1.899.888 3.59.905 4.924-.055 1.172-.67 3.094-2.9 3.038-4.483-.052-.652-.355-1.184-.826-1.668l-.114-.114-.32-.295c-1.157-1.035-3.16-2.508-3.78-2.638-.728-.152-1.22-.016-2 .413l-.289.165c-.553.319-.751.373-1.013.278-2.769-1.137-4.72-3.099-5.865-5.913-.074-.208-.037-.39.203-.832l.127-.225c.524-.916.7-1.434.535-2.231l-.029-.104c-.271-.789-1.932-3.014-2.854-3.983l-.149-.15c-.48-.473-1.009-.776-1.616-.829Zm-.129 1.703.064.012c.11.032.241.108.388.235l.107.098.202.212c.784.866 2.303 2.908 2.354 3.152.047.229-.005.42-.254.872l-.13.23c-.548.96-.718 1.578-.403 2.453 1.329 3.27 3.616 5.57 6.838 6.892.831.303 1.42.182 2.255-.27l.286-.162c.566-.327.773-.399 1.026-.346.246.052 2.453 1.708 3.262 2.487l.095.094c.209.215.322.415.335.563.011.348-.337 1-.95 1.713-.438.507-1.006 1.025-1.252 1.197l-.059.038c-.795.568-1.777.592-3.075.039l-.248-.11c-4.486-1.878-11.54-8.87-13.578-13.467l-.12-.284c-.632-1.397-.684-2.418-.231-3.16l.09-.137c.526-.87 2.11-2.24 2.898-2.345l.1-.006Zm9.4-1.423.115.005c4.584.512 8.205 4.148 8.72 8.756a.853.853 0 0 1-.748.944.85.85 0 0 1-.939-.753c-.427-3.816-3.424-6.826-7.22-7.25a.853.853 0 0 1-.75-.943.852.852 0 0 1 .71-.749l.111-.01Zm.069 4.034.115.014a5.875 5.875 0 0 1 4.63 4.656.85.85 0 1 1-1.667.327 4.172 4.172 0 0 0-3.288-3.307.853.853 0 0 1 .097-1.69h.113Z" clip-rule="evenodd"/><rect width="43" height="43" x=".5" y="1" stroke="#F0F0F0" rx="7.5"/></svg>