<svg xmlns="http://www.w3.org/2000/svg" width="44" height="45" fill="none"><path fill="#F0F0F0" fill-rule="evenodd" d="M27.28 12H16.698c-3.698 0-6.366 2.988-6.366 6.835v7.33c0 3.847 2.668 6.835 6.366 6.835h10.57a6.442 6.442 0 0 0 4.662-2.069 6.532 6.532 0 0 0 1.723-4.82l.001-7.276a6.496 6.496 0 0 0-1.724-4.766A6.437 6.437 0 0 0 27.279 12Zm-10.581 1.783h10.56a4.672 4.672 0 0 1 3.377 1.502 4.742 4.742 0 0 1 1.25 3.498l-.001 7.381c.077 1.342-.375 2.606-1.249 3.551a4.672 4.672 0 0 1-3.377 1.502H16.7c-2.676 0-4.596-2.15-4.596-5.052v-7.33c0-2.902 1.92-5.052 4.596-5.052Zm12.328 4.795a.88.88 0 0 0-1.244-.139l-4.782 3.856-.138.096a1.61 1.61 0 0 1-1.844-.103l-4.817-3.851-.109-.075a.881.881 0 0 0-1.135.219.896.896 0 0 0 .143 1.253l4.824 3.855.188.138a3.37 3.37 0 0 0 3.985-.133l4.791-3.863.096-.09a.897.897 0 0 0 .042-1.163Z" clip-rule="evenodd"/><rect width="43" height="43" x=".5" y="1" stroke="#F0F0F0" rx="7.5"/></svg>