<svg width="29" height="28" fill="none" xmlns="http://www.w3.org/2000/svg"><path d="M27.927 8.518a10.027 10.027 0 0 0-.634-3.312 6.687 6.687 0 0 0-1.569-2.416 6.68 6.68 0 0 0-2.416-1.574 9.996 9.996 0 0 0-3.309-.634C18.546.516 18.081.5 14.379.5c-3.7 0-4.166.016-5.62.082a9.998 9.998 0 0 0-3.307.634A6.68 6.68 0 0 0 3.038 2.79a6.689 6.689 0 0 0-1.573 2.416c-.396 1.06-.61 2.18-.633 3.312C.766 9.973.75 10.438.75 14.143s.016 4.17.082 5.625c.023 1.132.237 2.252.633 3.312a6.686 6.686 0 0 0 1.573 2.42 6.677 6.677 0 0 0 2.414 1.574 9.99 9.99 0 0 0 3.309.634c1.453.066 1.918.082 5.619.082 3.701 0 4.165-.016 5.619-.082a9.993 9.993 0 0 0 3.309-.634 6.967 6.967 0 0 0 3.985-3.99c.397-1.06.611-2.18.634-3.312.066-1.455.082-1.92.082-5.625s-.016-4.174-.082-5.629Zm-2.454 11.139a7.558 7.558 0 0 1-.47 2.533 4.518 4.518 0 0 1-2.585 2.59c-.81.3-1.667.46-2.53.47-1.437.066-1.869.08-5.508.08-3.64 0-4.07-.014-5.507-.08a7.535 7.535 0 0 1-2.529-.47 4.223 4.223 0 0 1-1.567-1.021 4.227 4.227 0 0 1-1.023-1.569 7.556 7.556 0 0 1-.47-2.533c-.066-1.439-.08-1.87-.08-5.513s.014-4.075.08-5.513c.011-.864.17-1.72.47-2.531a4.23 4.23 0 0 1 1.02-1.572 4.22 4.22 0 0 1 1.57-1.02c.81-.3 1.666-.46 2.53-.47 1.438-.066 1.869-.08 5.508-.08 3.64 0 4.07.014 5.507.08.864.01 1.72.17 2.53.47a4.226 4.226 0 0 1 1.568 1.021c.452.44.8.978 1.017 1.571.3.811.46 1.668.47 2.533.065 1.439.08 1.87.08 5.513s-.015 4.072-.08 5.511Z" fill="#747474"/><path d="M14.383 7.139a6.993 6.993 0 0 0-6.466 4.325 7.013 7.013 0 0 0 1.517 7.635 6.997 6.997 0 0 0 7.627 1.518 7.001 7.001 0 0 0 4.32-6.472 7.01 7.01 0 0 0-2.05-4.954 6.995 6.995 0 0 0-4.948-2.052Zm0 11.554a4.54 4.54 0 0 1-4.198-2.808 4.553 4.553 0 0 1 .985-4.956 4.542 4.542 0 0 1 7.756 3.216 4.55 4.55 0 0 1-1.33 3.216 4.54 4.54 0 0 1-3.213 1.332ZM23.29 6.862a1.638 1.638 0 0 1-1.955 1.605 1.635 1.635 0 0 1-1.191-2.232 1.636 1.636 0 0 1 3.146.627Z" fill="#747474"/></svg>