<svg width="63" height="63" viewBox="0 0 63 63" fill="none" xmlns="http://www.w3.org/2000/svg">
<g clip-path="url(#clip0_227_405)">
<path d="M31.9997 62.5C49.1205 62.5 62.9997 48.6208 62.9997 31.5C62.9997 14.3792 49.1205 0.5 31.9997 0.5C14.8788 0.5 0.999666 14.3792 0.999666 31.5C0.999666 48.6208 14.8788 62.5 31.9997 62.5Z" fill="url(#paint0_radial_227_405)"/>
<path d="M31.998 54.0746C44.4632 54.0746 54.5682 43.9696 54.5682 31.5045C54.5682 19.0393 44.4632 8.93433 31.998 8.93433C19.5329 8.93433 9.4279 19.0393 9.4279 31.5045C9.4279 43.9696 19.5329 54.0746 31.998 54.0746Z" stroke="white" stroke-width="0.413661" stroke-miterlimit="10"/>
<path d="M0.997742 31.4946H9.61241" stroke="white" stroke-width="0.413661" stroke-miterlimit="10"/>
<path d="M54.383 31.4946H62.9977" stroke="white" stroke-width="0.413661" stroke-miterlimit="10"/>
<path d="M9.77048 18.3252L10.7187 16.8293L11.9195 17.5905L12.0938 17.3154L9.46758 15.6507L9.29324 15.9257L10.4537 16.6614L9.50551 18.1573L8.34501 17.4216L8.17067 17.6967L10.7969 19.3614L10.9712 19.0864L9.77048 18.3252Z" fill="white"/>
<path d="M10.7427 14.0004L10.5375 14.2544L12.9629 16.2133L13.168 15.9593L10.7427 14.0004Z" fill="white"/>
<path d="M14.6319 11.2857C14.3894 11.1613 14.1177 11.115 13.8167 11.1526C13.5157 11.1845 13.2383 11.3263 12.9818 11.5752C12.6625 11.8849 12.5025 12.256 12.5016 12.6828C12.5007 13.1097 12.6579 13.4884 12.9703 13.8105C13.2855 14.1354 13.6508 14.3066 14.0634 14.3213C14.476 14.336 14.849 14.1844 15.1825 13.8609C15.4989 13.554 15.6586 13.211 15.6587 12.8347C15.6616 12.4556 15.5206 12.1221 15.2386 11.8313L15.1557 11.7458L13.9728 12.8933L14.1829 13.1099L15.115 12.2058C15.3027 12.4221 15.3776 12.6647 15.3398 12.9337C15.3049 13.2 15.1834 13.4341 14.9753 13.6359C14.7102 13.8931 14.4136 14.0093 14.0797 13.9902C13.7459 13.9655 13.4531 13.8234 13.1988 13.5612C12.9416 13.2961 12.817 12.9965 12.8192 12.6624C12.8244 12.3254 12.9495 12.0381 13.1918 11.8031C13.4055 11.5957 13.6291 11.4839 13.8597 11.465C14.0902 11.446 14.3087 11.483 14.515 11.5872L14.6319 11.2857Z" fill="white"/>
<path d="M16.5278 10.8105L17.9754 9.79009L18.7945 10.9521L19.0607 10.7645L17.2692 8.22302L17.003 8.41063L17.7947 9.53368L16.347 10.5541L15.5554 9.43106L15.2892 9.61867L17.0807 12.1601L17.3469 11.9725L16.5278 10.8105Z" fill="white"/>
<path d="M20.5441 8.53379L21.9299 9.24503L22.2845 9.06628L20.8347 8.32506C21.0403 8.18587 21.18 8.01316 21.2557 7.80157C21.3314 7.58999 21.3112 7.37339 21.1968 7.14643C21.0806 6.91593 20.9007 6.76201 20.6572 6.69353C20.4172 6.62327 20.1368 6.66679 19.8141 6.82945L18.853 7.31384L20.2526 10.0905L20.5434 9.9439L19.9768 8.81977L20.5441 8.53379ZM19.2815 7.44032L19.934 7.11144C20.4198 6.86656 20.7505 6.99337 20.9078 7.30543C20.9864 7.46146 20.9941 7.6266 20.9325 7.79551C20.8709 7.96443 20.7221 8.11053 20.4881 8.2285L19.8427 8.55381L19.2815 7.44032Z" fill="white"/>
<path d="M23.3265 7.82807L24.9348 7.29059L25.5067 7.93687L25.8343 7.82736L23.5757 5.30375L23.2254 5.42081L22.938 8.79533L23.2544 8.6896L23.3265 7.82807ZM23.3489 7.50657L23.5019 5.68431L24.7199 7.04839L23.3489 7.50657Z" fill="white"/>
<path d="M28.753 4.14465L28.4359 4.19857L28.8713 6.75895L26.6272 4.50611L26.2553 4.56935L26.7765 7.63476L27.0936 7.58084L26.6496 4.96957L28.9297 7.26863L29.2743 7.21005L28.753 4.14465Z" fill="white"/>
<path d="M33.3191 4.87631C33.2276 4.61964 33.0612 4.39993 32.816 4.22121C32.5747 4.03846 32.2754 3.95197 31.9181 3.95777C31.4734 3.96499 31.1027 4.1259 30.8098 4.43647C30.517 4.74704 30.3723 5.13067 30.3796 5.57935C30.3869 6.032 30.536 6.40689 30.8267 6.70005C31.1174 6.9932 31.4931 7.13803 31.9577 7.13049C32.3984 7.12333 32.7496 6.98259 33.0073 6.70834C33.2689 6.43402 33.3945 6.09439 33.3879 5.68938L33.386 5.57027L31.7382 5.59701L31.7431 5.89878L33.0415 5.8777C33.0302 6.16385 32.9187 6.39204 32.707 6.56229C32.4993 6.73247 32.2505 6.81991 31.9606 6.82462C31.5914 6.83061 31.2956 6.71229 31.0652 6.46979C30.8388 6.22325 30.7227 5.91932 30.7168 5.55402C30.7108 5.18475 30.825 4.88105 31.0554 4.63901C31.2897 4.39691 31.5777 4.27308 31.9152 4.2676C32.213 4.26277 32.4524 4.33435 32.6335 4.47836C32.8146 4.62237 32.9485 4.79892 33.0275 5.01608L33.3191 4.87631Z" fill="white"/>
<path d="M36.8564 4.39303L34.9278 4.13433L34.5144 7.21613L36.4587 7.47694L36.4989 7.17781L34.8773 6.9603L35.0272 5.8425L36.4953 6.03943L36.5354 5.7403L35.0673 5.54338L35.2104 4.47675L36.8163 4.69216L36.8564 4.39303Z" fill="white"/>
<path d="M40.23 8.52334L40.5737 8.64721L42.8048 6.14614L42.4723 6.02631L40.527 8.23784L40.4474 5.29651L40.1075 5.17398L40.23 8.52334Z" fill="white"/>
<path d="M43.1196 8.87455L44.619 9.66644L44.5466 10.5264L44.8521 10.6877L45.1173 7.31138L44.7907 7.13891L42.1517 9.26158L42.4467 9.41736L43.1196 8.87455ZM43.3675 8.66868L44.7911 7.52084L44.6457 9.34373L43.3675 8.66868Z" fill="white"/>
<path d="M47.7209 8.92014L47.4558 8.73105L45.6501 11.2625L47.1146 12.3071L47.2922 12.0582L46.0928 11.2026L47.7209 8.92014Z" fill="white"/>
<path d="M50.3095 10.9651L50.0688 10.7457L47.9745 13.0441L49.3042 14.2557L49.5102 14.0297L48.4212 13.0374L50.3095 10.9651Z" fill="white"/>
<path d="M53.6984 14.5438L52.435 13.064L50.0702 15.0829L51.344 16.5749L51.5735 16.3789L50.5112 15.1346L51.3689 14.4023L52.3307 15.5288L52.5602 15.3329L51.5984 14.2064L52.4169 13.5076L53.4689 14.7398L53.6984 14.5438Z" fill="white"/>
<path d="M55.9886 17.9347L55.7871 17.6205L54.0009 17.5868L54.7214 15.9592L54.5091 15.6283L53.6447 17.6124L52.5417 18.32L52.7196 18.5974L53.826 17.8877L55.9886 17.9347Z" fill="white"/>
<path d="M13.421 51.7543L13.6134 51.9305L15.1124 50.2936L15.7175 50.8477L15.881 50.6692L14.4759 49.3826L14.3124 49.5611L14.9199 50.1174L13.421 51.7543Z" fill="white"/>
<path d="M18.1564 52.3895L16.9086 51.4961L15.4808 53.49L16.7388 54.3907L16.8774 54.1972L15.8282 53.446L16.3461 52.7227L17.2959 53.4029L17.4345 53.2093L16.4847 52.5292L16.9788 51.8391L18.0178 52.5831L18.1564 52.3895Z" fill="white"/>
<path d="M18.7157 54.8536L19.8956 55.4938L19.8307 56.1739L20.0711 56.3043L20.3109 53.6339L20.0539 53.4945L17.9461 55.1515L18.1782 55.2774L18.7157 54.8536ZM18.9138 54.6929L20.0508 53.7968L19.9196 55.2385L18.9138 54.6929Z" fill="white"/>
<path d="M23.6772 57.0385L24.966 57.4278L25.0402 58.1089L25.3027 58.1882L24.9965 55.5169L24.7158 55.4321L22.9818 57.4871L23.2354 57.5637L23.6772 57.0385ZM23.8392 56.8404L24.7741 55.7297L24.9378 57.1723L23.8392 56.8404Z" fill="white"/>
<path d="M29.1869 56.394L28.9353 56.3544L28.6155 58.3854L27.5006 56.1284L27.2056 56.082L26.8226 58.5136L27.0741 58.5532L27.4004 56.4818L28.5306 58.7826L28.8039 58.8257L29.1869 56.394Z" fill="white"/>
<path d="M30.6738 58.9674L31.4062 58.9807C31.774 58.9874 32.0841 58.8767 32.3366 58.6517C32.5892 58.4236 32.7203 58.1304 32.7268 57.7689C32.7332 57.42 32.6159 57.1255 32.3781 56.8885C32.1403 56.6483 31.8312 56.5264 31.4509 56.5195L30.7185 56.5062L30.6738 58.9674ZM30.9719 56.7529L31.4339 56.7613C31.7514 56.7671 32.0012 56.8659 32.1864 57.0548C32.3748 57.2437 32.4647 57.4843 32.4595 57.7704C32.4543 58.0596 32.3526 58.2935 32.1575 58.4755C31.9624 58.6575 31.7124 58.7441 31.4012 58.7385L30.936 58.73L30.9719 56.7529Z" fill="white"/>
<path d="M37.1253 58.5466C37.3594 58.5036 37.5355 58.4044 37.6529 58.2459C37.7703 58.0874 37.8117 57.9142 37.7777 57.7293C37.75 57.5783 37.6697 57.453 37.5367 57.3532C37.3922 57.2428 37.1702 57.1785 36.8737 57.1597C36.4895 57.1315 36.3201 57.0416 36.28 56.8228C36.2579 56.7027 36.2891 56.595 36.3735 56.4999C36.458 56.4048 36.5682 56.3463 36.7038 56.3214C36.9688 56.2727 37.1774 56.3682 37.326 56.6052L37.5196 56.4454C37.3496 56.1614 37.0484 56.0129 36.6664 56.083C36.4569 56.1215 36.2895 56.2159 36.1637 56.3633C36.0379 56.5106 35.9928 56.6813 36.0296 56.8816C36.0913 57.2174 36.3583 57.3881 36.8733 57.4177C37.2594 57.4391 37.4771 57.5489 37.5223 57.7953C37.545 57.9186 37.5144 58.0293 37.4268 58.125C37.3424 58.2201 37.2265 58.2828 37.0817 58.3094C36.7705 58.3666 36.5582 58.2336 36.3801 57.9574L36.1823 58.1115C36.402 58.4757 36.7155 58.6219 37.1253 58.5466Z" fill="white"/>
<path d="M39.8269 57.8664L39.5383 56.9525L40.0341 56.7959C40.3059 56.7101 40.4962 56.5744 40.6061 56.3919C40.715 56.2065 40.735 56.0097 40.669 55.8006C40.6067 55.6035 40.4852 55.4579 40.3024 55.3678C40.1196 55.2778 39.8948 55.2732 39.626 55.3581L38.8435 55.6052L39.582 57.9437L39.8269 57.8664ZM39.161 55.7578L39.6777 55.5947C39.8898 55.5277 40.0542 55.5283 40.176 55.5917C40.2978 55.655 40.3785 55.7544 40.4209 55.8888C40.4624 56.0202 40.4475 56.1497 40.3771 56.2803C40.3057 56.408 40.1715 56.5029 39.9714 56.5661L39.4666 56.7255L39.161 55.7578Z" fill="white"/>
<path d="M41.9598 54.4644L41.7226 54.5655L42.688 56.8299L42.9252 56.7288L41.9598 54.4644Z" fill="white"/>
<path d="M45.6381 55.3978C45.882 55.2606 46.0548 55.0804 46.1495 54.8576C46.2469 54.6333 46.2769 54.4108 46.2366 54.1918L45.9799 54.2099C46.0462 54.6163 45.907 54.9652 45.5261 55.1794C45.2823 55.3166 45.0345 55.3442 44.7815 55.2664C44.5286 55.1887 44.3289 55.0197 44.1855 54.7649C44.0422 54.51 44.0072 54.2556 44.0764 54.0002C44.1483 53.7433 44.2994 53.5501 44.5323 53.4191C44.7378 53.3035 44.9315 53.2631 45.1133 53.2979C45.2964 53.3283 45.4565 53.4078 45.5934 53.5292L45.7437 53.322C45.5844 53.1735 45.3858 53.0833 45.1462 53.0485C44.9066 53.0138 44.6641 53.0636 44.4175 53.2023C44.1189 53.3703 43.9226 53.6178 43.8288 53.9447C43.7334 54.2689 43.7773 54.5905 43.9576 54.9111C44.1364 55.229 44.3842 55.4322 44.7053 55.5221C45.0249 55.6093 45.3367 55.5673 45.6381 55.3978Z" fill="white"/>
<path d="M47.7065 51.0017L46.4727 51.924L47.9465 53.8956L49.1904 52.9658L49.0474 52.7744L48.01 53.5499L47.4754 52.8348L48.4146 52.1327L48.2715 51.9413L47.3323 52.6434L46.8222 51.9611L47.8496 51.1931L47.7065 51.0017Z" fill="white"/>
<path d="M50.9944 51.3833C51.1688 51.2185 51.2633 51.0379 51.2756 50.8395C51.2878 50.641 51.2278 50.4718 51.0977 50.3341C50.9914 50.2216 50.8546 50.1597 50.6874 50.1483C50.5046 50.1342 50.2816 50.2016 50.0205 50.3484C49.6802 50.5354 49.4876 50.5523 49.3336 50.3894C49.249 50.2999 49.2163 50.1917 49.2355 50.0649C49.2547 49.9381 49.3159 49.8282 49.4169 49.7327C49.6142 49.5462 49.843 49.5124 50.0988 49.6313L50.1749 49.39C49.8752 49.243 49.539 49.2827 49.2544 49.5517C49.0984 49.6992 49.0086 49.8709 48.9831 50.0645C48.9575 50.2581 49.0131 50.4273 49.1541 50.5764C49.3905 50.8266 49.71 50.8244 50.1618 50.5668C50.5001 50.3731 50.7444 50.3465 50.9179 50.5301C51.0047 50.6219 51.0396 50.7323 51.018 50.8613C50.9988 50.988 50.9352 51.1047 50.8274 51.2066C50.5956 51.4257 50.343 51.4298 50.0408 51.2939L49.9581 51.5328C50.3438 51.7202 50.6892 51.6718 50.9944 51.3833Z" fill="white"/>
<path d="M30.0285 26.6963V30.2689L29.2387 29.2166V26.6963H30.0285Z" fill="#CEC55B"/>
<path d="M34.7591 26.6963V29.2128L33.9693 30.2659V26.6963H34.7591Z" fill="#CEC55B"/>
<path d="M29.2387 36.2569V32.6843L30.0285 33.7366V36.2569H29.2387Z" fill="#CEC55B"/>
<path d="M33.9693 36.2568V33.7403L34.7591 32.6873V36.2568H33.9693Z" fill="#CEC55B"/>
<path d="M37.6647 27.9763L34.759 31.8484L33.9692 32.9007L32.4914 34.8711L31.9973 35.5289L31.5039 34.8711L30.0284 32.9045L29.2386 31.8522L26.3306 27.9763H27.3181L29.2386 30.5358L30.0284 31.5881L31.9973 34.2133L33.9692 31.5851L34.759 30.5321L36.6773 27.9763H37.6647Z" fill="white"/>
<path fill-rule="evenodd" clip-rule="evenodd" d="M35.6534 21.5804L31.9978 19.1016L26.7973 22.0556L25.1641 21.6302L23.4352 22.503L23.7731 21.821L17.0753 25.1786L24.1925 20.2369L26.1931 20.9135L31.9978 16.8831L39.6627 22.205L41.6633 21.5283L46.9203 25.1786L41.8104 22.6938L39.2358 23.4791L35.1246 20.1041L35.6534 21.5804Z" fill="white"/>
<path fill-rule="evenodd" clip-rule="evenodd" d="M21.4902 25.1786H20.7826L25.36 22.5776L21.4902 25.1786Z" fill="white"/>
<path fill-rule="evenodd" clip-rule="evenodd" d="M39.0594 25.1786H39.7677L36.4086 22.5776L39.0594 25.1786Z" fill="#CEC55B"/>
<path opacity="0.5" fill-rule="evenodd" clip-rule="evenodd" d="M35.6534 41.4295L31.9978 43.9083L26.7973 40.9536L25.1641 41.3798L23.4352 40.507L23.7731 41.1889L17.0753 37.8313L24.1925 42.773L26.1931 42.0964L31.9978 46.1269L39.6627 40.8049L41.6633 41.4816L46.9203 37.8313L41.8104 40.3161L39.2358 39.5308L35.1246 42.9051L35.6534 41.4295Z" fill="white"/>
<path opacity="0.5" fill-rule="evenodd" clip-rule="evenodd" d="M21.4902 37.8313H20.7826L25.36 40.4323L21.4902 37.8313Z" fill="#CEC55B"/>
<path opacity="0.5" fill-rule="evenodd" clip-rule="evenodd" d="M39.0594 37.8313H39.7677L36.4086 40.4323L39.0594 37.8313Z" fill="white"/>
</g>
<defs>
<radialGradient id="paint0_radial_227_405" cx="0" cy="0" r="1" gradientUnits="userSpaceOnUse" gradientTransform="translate(31.9997 31.5) scale(31 31)">
<stop stop-color="#15722F"/>
<stop offset="1" stop-color="#063D1B"/>
</radialGradient>
<clipPath id="clip0_227_405">
<rect width="62.0023" height="62" fill="white" transform="translate(0.997742 0.5)"/>
</clipPath>
</defs>
</svg>
