<svg width="44" height="45" viewBox="0 0 44 45" fill="none" xmlns="http://www.w3.org/2000/svg">
<rect x="0.5" y="1" width="43" height="43" rx="7.5" stroke="#F0F0F0"/>
<path fill-rule="evenodd" clip-rule="evenodd" d="M27.2792 12.0001L16.6986 12C13.0008 12 10.333 14.9884 10.333 18.8355V26.1645C10.333 30.0116 13.0008 33 16.6986 33H27.2693C29.0455 32.9801 30.7266 32.2324 31.931 30.931C33.1354 29.6296 33.7581 27.888 33.6538 26.1119L33.6554 18.8355C33.7581 17.112 33.1354 15.3704 31.931 14.069C30.7266 12.7676 29.0455 12.0199 27.2792 12.0001ZM16.6986 13.7832L27.2594 13.7831C28.5415 13.7975 29.7618 14.3402 30.636 15.2849C31.5103 16.2296 31.9622 17.4937 31.8866 18.7829L31.885 26.1645C31.9622 27.5063 31.5103 28.7704 30.636 29.7151C29.7618 30.6598 28.5415 31.2025 27.2594 31.2169L16.6986 31.2168C14.0229 31.2168 12.1034 29.0665 12.1034 26.1645V18.8355C12.1034 15.9335 14.0229 13.7832 16.6986 13.7832ZM29.0273 18.578C28.7218 18.1935 28.1648 18.1313 27.7831 18.439L23.0006 22.2948L22.8635 22.3911C22.2996 22.7443 21.5592 22.7117 21.019 22.2877L16.2016 18.4367L16.0932 18.3624C15.7195 18.145 15.2342 18.2302 14.958 18.5809C14.6541 18.9666 14.7181 19.5274 15.1011 19.8335L19.9246 23.6893L20.1128 23.827C21.3262 24.6534 22.9342 24.6077 24.0979 23.6941L28.8894 19.8312L28.9855 19.7413C29.2792 19.4229 29.305 18.9274 29.0273 18.578Z" fill="#F0F0F0"/>
</svg>
