<svg width="32" height="32" viewBox="0 0 32 32" fill="none" xmlns="http://www.w3.org/2000/svg">
<path d="M30.4913 9.89691C29.7026 8.01438 28.5551 6.30329 27.1128 4.85902C25.6749 3.41223 23.9668 2.26194 22.0855 1.47347C20.1582 0.661823 18.0876 0.245773 15.9964 0.250032H15.9261C13.7991 0.260579 11.7425 0.682454 9.80539 1.51214C7.94025 2.30869 6.24818 3.46102 4.82375 4.90472C3.39546 6.34575 2.26111 8.05086 1.48391 9.92503C0.677122 11.874 0.268322 13.9646 0.281562 16.0739C0.292108 18.5137 0.875702 20.936 1.96555 23.1016V28.4453C1.96555 29.3383 2.68976 30.0625 3.57922 30.0625H8.91594C11.0917 31.1604 13.4926 31.7381 15.9296 31.75H16.0034C18.1058 31.75 20.1413 31.3422 22.0609 30.5442C23.9326 29.7651 25.6344 28.6282 27.0706 27.1973C28.5191 25.7594 29.6581 24.0789 30.4562 22.2051C31.2823 20.2645 31.7042 18.2008 31.7148 16.0703C31.7218 13.9293 31.307 11.8516 30.4913 9.89691ZM8.97922 17.6875C8.05109 17.6875 7.29523 16.9317 7.29523 16C7.29523 15.0684 8.05109 14.3125 8.97922 14.3125C9.90734 14.3125 10.6632 15.0684 10.6632 16C10.6632 16.9317 9.91086 17.6875 8.97922 17.6875ZM15.9964 17.6875C15.0683 17.6875 14.3124 16.9317 14.3124 16C14.3124 15.0684 15.0683 14.3125 15.9964 14.3125C16.9245 14.3125 17.6804 15.0684 17.6804 16C17.6804 16.9317 16.9245 17.6875 15.9964 17.6875ZM23.0136 17.6875C22.0855 17.6875 21.3296 16.9317 21.3296 16C21.3296 15.0684 22.0855 14.3125 23.0136 14.3125C23.9417 14.3125 24.6976 15.0684 24.6976 16C24.6976 16.9317 23.9417 17.6875 23.0136 17.6875Z" fill="#4285F4"/>
</svg>
