<svg width="48" height="49" viewBox="0 0 48 49" fill="none" xmlns="http://www.w3.org/2000/svg">
<path d="M9.40001 35.8999C7.40001 33.6999 6.20001 31.2999 6.20001 27.2999C6.20001 20.2999 11.2 14.0999 18.2 10.8999L20 13.4999C13.4 17.0999 12 21.6999 11.6 24.6999C12.6 24.0999 14 23.8999 15.4 24.0999C19 24.4999 21.8 27.2999 21.8 31.0999C21.8 32.8999 21 34.6999 19.8 36.0999C18.4 37.4999 16.8 38.0999 14.8 38.0999C12.6 38.0999 10.6 37.0999 9.40001 35.8999ZM29.4 35.8999C27.4 33.6999 26.2 31.2999 26.2 27.2999C26.2 20.2999 31.2 14.0999 38.2 10.8999L40 13.4999C33.4 17.0999 32 21.6999 31.6 24.6999C32.6 24.0999 34 23.8999 35.4 24.0999C39 24.4999 41.8 27.2999 41.8 31.0999C41.8 32.8999 41 34.6999 39.8 36.0999C38.6 37.4999 36.8 38.0999 34.8 38.0999C32.6 38.0999 30.6 37.0999 29.4 35.8999Z" fill="url(#paint0_linear_2829_1122)"/>
<defs>
<linearGradient id="paint0_linear_2829_1122" x1="-2.69999" y1="38.0999" x2="53.9633" y2="38.0999" gradientUnits="userSpaceOnUse">
<stop stop-color="#135A35"/>
<stop offset="1" stop-color="#48A463"/>
</linearGradient>
</defs>
</svg>
